<svg id="Layer_2" data-name="Layer 2" xmlns="http://www.w3.org/2000/svg" viewBox="0 0 582 608.27"><defs><style>.cls-1{fill:#ffcc6e;}.cls-2{fill:#fff;}</style></defs><title>AmandaInsalacoLogo</title><path class="cls-1" d="M357,537a597,597,0,0,0,158,0c5-40,7-79,11-119,7-55,17-109,37-161,1-2,0-4,1-6,8-19,14-38,23-56,28-3,57-5,85-8,3,12,5,23,8,35,4,12,7,22,11,34,3,9,7,17,10,26,17,44,41,82,66,124a239.24,239.24,0,0,1,13,21c2,3,4,5,6,8,6,13,14,24,20,36,40-2,81-1,121,4,1,19,4,38,5,57-38-6-76-8-114-5,5,26,8,53,11,80v11c1,6,1,11,2,17,1,11,0,22,1,33,1,13-2,27-1,40a27.69,27.69,0,0,1,9-1c19,2,37,0,56,4h9c10,2,20,3,30,5-1,14-3,27-4,41-1,10-4,19-4,29-68-15-138-13-207-6H710c-120,14-238,23-357,6,5-16,6-33,9-50,56,7,112,8,169,5,73-5,143-18,216-28,8-1,15-2,23-2,3-60-3-120-16-178-16,3-31,6-47,10-1,0-3,2-4,2-32,7-60,18-92,26-11,2-21,5-31,7-8,57-22,114-47,166-27,2-53,2-80,2,15-25,25-52,35-80a649.4,649.4,0,0,0,19-76c-48,4-97,5-145-2-1-17-4-34-5-51Z" transform="translate(-353 -187)"/><path class="cls-2" d="M574,504c20-28,31-61,34-95,1-25,1-50,4-75,3-26,11-51,22-74,11,0,21-2,32-2,2,21,5,43,14,62,1,2,0,3,1,5,9,20,20,37,29,57,1,1,2,3,3,4,17,37,26,77,25,118-47-5-94,5-141,1-8,0-15,1-23-1Z" transform="translate(-353 -187)"/></svg>